<?xml version="1.0" standalone="no"?>
<!DOCTYPE svg PUBLIC "-//W3C//DTD SVG 20010904//EN"
 "http://www.w3.org/TR/2001/REC-SVG-20010904/DTD/svg10.dtd">
<svg version="1.0" xmlns="http://www.w3.org/2000/svg"
 width="1024.000000pt" height="1024.000000pt" viewBox="0 0 1024.000000 1024.000000"
 preserveAspectRatio="xMidYMid meet">
<metadata>
Created by potrace 1.16, written by Peter Selinger 2001-2019
</metadata>
<g transform="translate(0.000000,1024.000000) scale(0.100000,-0.100000)"
fill="#000000" stroke="none">
<path d="M4966 7638 c-10 -5 -58 -41 -108 -79 -49 -38 -95 -66 -101 -62 -5 3
-7 2 -4 -4 8 -13 -50 -56 -65 -47 -6 4 -8 3 -4 -4 8 -13 -231 -195 -245 -186
-5 3 -8 1 -7 -4 3 -8 -100 -94 -177 -148 -19 -14 -20 -29 -25 -415 l-5 -401
-135 92 c-98 66 -140 89 -155 85 -11 -4 -25 -7 -32 -7 -7 -1 -11 -5 -10 -9 2
-7 -235 -189 -247 -189 -4 0 -4 5 0 12 4 7 3 8 -5 4 -6 -4 -9 -11 -7 -15 8
-12 -53 -53 -66 -45 -6 4 -8 3 -4 -4 3 -6 -33 -39 -84 -76 l-90 -67 0 -92 c0
-50 0 -206 0 -346 -1 -140 -3 -258 -6 -262 -2 -4 -11 -6 -19 -3 -8 4 -12 11
-8 17 3 6 1 7 -5 3 -12 -7 -56 17 -48 25 2 2 -5 5 -17 5 -12 1 -50 7 -84 13
-73 13 -165 2 -238 -29 -57 -25 -67 -25 -38 -1 12 10 20 21 17 24 -10 10 164
179 177 171 7 -4 10 -3 5 4 -7 12 59 62 82 62 7 0 22 9 34 20 12 11 36 23 55
26 18 3 33 10 33 15 0 25 -182 47 -250 29 -25 -6 -53 -12 -62 -13 -9 -1 -15
-4 -12 -8 2 -4 -4 -10 -14 -13 -49 -16 -139 -131 -167 -213 l-12 -36 -13 39
c-56 174 -172 268 -330 267 -74 0 -170 -29 -170 -50 0 -5 19 -14 43 -20 80
-22 279 -176 262 -204 -5 -7 -4 -10 2 -6 14 9 47 -29 38 -43 -3 -6 -1 -9 7 -8
7 2 12 -5 12 -14 -1 -10 2 -16 6 -13 4 2 15 -4 24 -14 16 -17 11 -17 -42 5
-75 30 -187 40 -262 24 -30 -6 -65 -12 -77 -13 -12 -1 -20 -4 -18 -6 2 -2 -22
-20 -53 -41 -76 -49 -161 -172 -162 -234 0 -19 1 -19 23 2 28 27 156 85 222
102 59 15 250 21 285 10 22 -7 22 -8 4 -9 -11 -1 -46 -17 -78 -36 -32 -19 -63
-32 -70 -28 -6 3 -8 3 -5 -1 4 -4 -15 -28 -42 -53 -29 -27 -62 -73 -82 -112
-30 -62 -32 -72 -32 -176 0 -123 8 -165 31 -165 8 0 13 4 10 9 -18 29 165 298
200 295 8 -1 12 2 9 6 -7 12 36 45 147 113 15 10 29 17 30 17 2 0 3 -38 3 -85
0 -47 -4 -85 -9 -85 -5 0 -4 -6 1 -12 10 -13 27 -162 28 -250 0 -25 3 -44 6
-42 3 2 14 -43 23 -99 20 -115 70 -287 115 -395 17 -40 26 -70 21 -67 -6 4
-10 -1 -10 -9 0 -8 5 -18 10 -21 6 -3 10 -11 10 -16 0 -6 -5 -7 -12 -3 -7 5
-8 3 -3 -5 5 -9 10 -10 18 -2 7 7 6 15 -3 26 -7 8 -8 15 -3 15 11 0 74 -126
66 -134 -3 -3 -92 -5 -197 -5 l-191 0 -27 -31 c-16 -17 -28 -37 -28 -46 0 -28
31 -75 56 -84 15 -6 381 -10 924 -10 799 0 901 -2 914 -16 20 -19 20 -34 1
-61 -15 -21 -19 -21 -342 -22 -181 0 -455 0 -611 -1 l-283 0 -24 -25 c-46 -45
-21 -134 38 -136 12 0 327 0 700 0 574 1 679 -1 683 -13 3 -8 13 -17 21 -20
14 -6 14 -4 2 11 -13 16 -12 17 4 4 25 -19 21 -58 -7 -76 -20 -14 -67 -16
-328 -14 -215 1 -311 -2 -326 -10 -38 -20 -45 -88 -14 -125 10 -11 11 -16 5
-12 -7 4 -13 3 -13 -3 0 -7 310 -10 945 -11 1006 0 991 -1 1009 45 12 33 6 82
-13 99 -16 15 -53 17 -358 17 -369 0 -383 2 -383 54 0 54 -16 53 784 54 805 1
778 0 792 56 3 14 0 40 -7 58 -8 17 -13 35 -11 40 1 4 -4 7 -11 7 -6 0 -303 0
-659 0 l-647 0 -17 25 c-17 25 -12 61 6 50 6 -4 9 -1 8 7 -3 11 165 13 945 15
627 2 955 6 968 13 27 15 52 68 45 96 -4 14 -15 33 -26 44 -18 18 -34 20 -190
20 -150 0 -169 2 -163 16 5 13 8 13 15 2 7 -9 8 -8 4 5 -3 10 4 37 18 60 104
188 190 533 203 820 3 75 9 137 12 137 16 -1 116 -80 113 -90 -1 -6 1 -9 6 -6
13 8 84 -63 76 -76 -4 -6 -3 -8 3 -5 13 8 52 -34 100 -110 36 -56 50 -84 67
-136 5 -15 8 -16 20 -5 8 7 12 16 10 19 -2 3 4 32 13 64 14 49 15 70 5 137
-19 129 -91 232 -205 293 -71 38 -56 50 53 41 137 -11 289 -64 345 -120 23
-23 25 -24 25 -5 0 11 -9 44 -19 74 -14 38 -16 55 -8 55 7 0 1 6 -13 13 -14 7
-24 21 -23 31 0 9 -1 15 -4 12 -3 -3 -22 8 -41 26 -20 17 -58 41 -85 53 -26
13 -44 24 -38 26 13 5 -75 12 -139 12 -70 1 -158 -7 -155 -14 2 -3 -9 -10 -25
-16 -27 -10 -29 -10 -20 7 15 28 128 138 188 182 65 48 157 92 177 84 9 -3 15
0 15 9 0 7 -16 19 -35 26 -19 7 -35 16 -35 19 0 3 -8 6 -17 7 -139 8 -182 9
-178 3 3 -4 -15 -15 -39 -24 -55 -21 -134 -103 -167 -173 -29 -62 -45 -69 -38
-17 0 4 -3 10 -8 13 -5 3 -19 22 -31 42 -12 19 -30 43 -41 53 -11 10 -18 24
-14 30 3 6 3 8 -2 4 -4 -4 -21 2 -37 13 -44 32 -132 59 -189 59 -46 0 -161
-32 -182 -50 -5 -4 9 -11 30 -14 58 -11 128 -47 111 -58 -10 -7 -8 -8 7 -6 11
1 31 -4 44 -11 41 -22 121 -103 114 -114 -3 -5 -2 -7 4 -4 5 3 27 -12 49 -35
l39 -41 -30 7 c-16 3 -52 11 -80 16 -30 7 -76 8 -115 3 -36 -4 -71 -7 -77 -6
-7 0 -11 -3 -8 -7 2 -4 -7 -12 -21 -19 -32 -14 -37 -14 -28 2 4 7 3 9 -2 4 -5
-5 -9 -12 -9 -15 0 -4 -24 -29 -53 -56 l-52 -49 0 465 c1 255 -2 471 -5 479
-3 8 -21 25 -40 38 -19 13 -32 28 -28 34 3 6 1 7 -5 3 -14 -8 -108 61 -104 76
1 5 -2 7 -7 3 -13 -7 -207 132 -203 146 1 6 -2 8 -7 4 -11 -6 -133 79 -126 89
3 3 2 4 -1 1 -4 -2 -20 5 -35 16 l-29 20 -45 -36 c-26 -22 -49 -34 -56 -29 -7
4 -9 3 -6 -3 4 -6 -10 -22 -31 -36 -20 -14 -62 -43 -92 -65 l-55 -40 3 401 c2
220 1 410 -2 422 -3 11 -41 48 -85 80 -43 33 -77 64 -74 69 4 5 2 6 -4 3 -10
-7 -149 91 -146 102 1 4 -4 8 -10 8 -22 0 -277 194 -271 205 4 7 2 8 -5 4 -7
-5 -34 9 -65 32 -41 31 -56 38 -70 30z m-202 -724 l-1 -156 -51 -29 c-28 -16
-54 -29 -57 -29 -3 0 -5 68 -5 150 l0 150 53 35 c28 19 54 34 57 34 3 1 5 -69
4 -155z m-271 -176 l-1 -143 -43 -27 c-24 -16 -47 -28 -51 -28 -12 0 -8 251 4
273 6 12 16 16 26 12 9 -3 13 -3 9 1 -5 5 47 54 57 54 1 0 0 -64 -1 -142z
m274 -337 l-2 -160 -32 -15 c-18 -9 -41 -13 -50 -10 -12 4 -14 3 -6 -3 9 -6 7
-12 -7 -21 -18 -11 -19 -6 -17 145 l2 157 55 33 c30 18 56 33 57 33 1 0 1 -72
0 -159z m-267 -21 c0 -5 -5 -10 -11 -10 -6 0 -7 -5 -2 -12 4 -7 8 -68 9 -136
2 -111 0 -123 -17 -133 -11 -5 -25 -7 -31 -3 -6 4 -8 3 -5 -3 4 -6 -5 -15 -18
-21 -13 -6 -26 -8 -29 -4 -2 4 -3 53 -1 107 1 55 3 116 4 136 1 32 6 40 44 63
46 28 57 31 57 16z m793 -305 l47 -20 0 -137 c0 -76 -1 -138 -3 -138 -2 0 -26
11 -55 25 l-51 25 0 135 c1 75 4 135 8 133 4 -2 28 -12 54 -23z m-1504 -224
l-1 -128 -34 -17 c-19 -9 -36 -16 -37 -16 -2 0 -3 56 -4 125 l-1 125 36 20
c21 10 38 19 40 20 2 0 2 -58 1 -129z m2510 50 c22 -16 23 -27 27 -144 3 -76
1 -127 -5 -127 -20 0 -41 13 -35 21 3 5 2 8 -3 7 -4 -1 -18 1 -30 6 -17 5 -23
16 -24 39 -1 18 -3 64 -5 102 -4 85 2 119 19 109 7 -4 3 3 -8 16 l-20 23 31
-17 c17 -10 41 -26 53 -35z m-2709 -151 l0 -119 -30 -16 c-16 -8 -31 -15 -35
-15 -3 0 -5 52 -5 115 0 103 2 115 19 125 26 13 29 13 35 -7 4 -15 5 -15 4 2
0 27 1 35 7 35 3 0 5 -54 5 -120z m910 -38 l0 -148 -45 -22 c-25 -12 -50 -22
-56 -22 -16 0 -10 276 6 290 11 9 84 48 93 50 1 0 2 -67 2 -148z m838 -162 c1
0 2 -65 2 -144 l0 -143 -55 21 -55 21 0 142 0 143 53 -20 c28 -11 53 -20 55
-20z m-1548 -120 l0 -129 -30 -16 c-16 -8 -33 -15 -37 -15 -5 0 -10 58 -11
128 l-3 128 33 16 c18 9 36 17 41 17 4 1 7 -57 7 -129z m-217 -237 c-9 -7 -25
-13 -35 -13 -16 0 -18 11 -18 126 0 110 2 125 16 120 8 -3 13 -2 10 3 -3 5 1
11 8 14 9 4 17 -1 19 -11 3 -12 6 -10 8 8 2 14 5 -33 6 -105 3 -114 1 -131
-14 -142z m2710 237 c20 -8 37 -21 37 -30 1 -8 3 -68 6 -132 2 -65 2 -118 -2
-118 -4 0 -26 10 -49 21 -41 21 -43 23 -48 78 -8 88 -3 176 11 174 15 -4 16
13 2 20 -17 9 3 3 43 -13z m-1783 -250 c0 -137 -2 -150 -19 -160 -11 -5 -28
-7 -38 -4 -13 4 -14 3 -5 -3 9 -7 6 -12 -13 -21 -14 -7 -28 -12 -31 -12 -2 0
-3 70 -2 156 l3 156 45 19 c25 10 48 18 53 18 4 1 7 -66 7 -149z m-1198 50
c40 -12 72 -28 78 -39 6 -12 10 -247 10 -646 l0 -628 -67 7 c-67 7 -109 28
-96 49 3 5 1 7 -4 4 -6 -4 -37 32 -71 81 -60 88 -97 152 -87 152 3 0 -3 8 -14
19 -24 24 -112 251 -144 371 -14 52 -32 138 -41 190 -14 87 -18 122 -30 278
l-4 53 51 -31 c29 -16 51 -34 50 -39 -1 -5 5 -8 15 -7 9 0 16 -5 15 -11 -2 -7
1 -12 6 -10 14 3 112 -94 105 -104 -3 -5 0 -8 6 -7 16 4 84 -94 117 -169 15
-35 31 -63 34 -63 12 0 29 96 29 158 0 71 -23 164 -55 218 -35 59 -106 125
-176 161 -59 30 -60 32 -33 36 64 11 239 -2 306 -23z m3673 -152 c-11 -6 -40
-22 -65 -36 -25 -15 -49 -25 -53 -24 -5 1 -6 -2 -2 -7 3 -6 -4 -16 -15 -23
-11 -7 -32 -30 -47 -50 -14 -21 -30 -35 -36 -31 -6 3 -7 1 -3 -5 3 -6 -3 -38
-14 -71 -26 -77 -27 -261 -1 -261 3 0 14 20 24 44 10 25 29 56 42 70 12 13 21
27 18 30 -10 9 145 159 156 151 6 -3 10 -2 9 4 -2 6 24 29 57 51 49 33 61 37
64 23 5 -27 -19 -238 -29 -241 -5 -2 -6 -10 -3 -18 19 -50 -130 -486 -160
-467 -6 3 -7 1 -3 -6 10 -16 -74 -148 -143 -222 l-58 -63 -74 -4 -74 -4 3 544
c3 613 -7 552 90 588 72 27 138 37 247 39 70 0 86 -2 70 -11z m-1667 -34 l32
-13 0 -150 0 -150 -52 18 -53 18 -3 152 -3 153 23 -7 c13 -4 38 -13 56 -21z
m-1710 -266 c-7 -4 -20 -5 -28 -2 -8 3 -11 2 -7 -2 7 -7 -21 -33 -36 -34 -4 0
-7 51 -6 113 l1 112 42 20 41 20 3 -109 c2 -81 -1 -112 -10 -118z"/>
</g>
</svg>
